<svg id="visual" viewBox="0 0 900 400" width="900" height="400" xmlns="http://www.w3.org/2000/svg" xmlns:xlink="http://www.w3.org/1999/xlink" version="1.1"><path d="M0 307L21.5 307.3C43 307.7 86 308.3 128.8 302.7C171.7 297 214.3 285 257.2 291.3C300 297.7 343 322.3 385.8 322.5C428.7 322.7 471.3 298.3 514.2 284.5C557 270.7 600 267.3 642.8 277.7C685.7 288 728.3 312 771.2 310.7C814 309.3 857 282.7 878.5 269.3L900 256L900 401L878.5 401C857 401 814 401 771.2 401C728.3 401 685.7 401 642.8 401C600 401 557 401 514.2 401C471.3 401 428.7 401 385.8 401C343 401 300 401 257.2 401C214.3 401 171.7 401 128.8 401C86 401 43 401 21.5 401L0 401Z" fill="#253352" stroke-linecap="round" stroke-linejoin="miter"></path></svg>