<svg id="visual" viewBox="0 0 900 150" width="900" height="150" xmlns="http://www.w3.org/2000/svg" xmlns:xlink="http://www.w3.org/1999/xlink" version="1.1"><rect x="0" y="0" width="900" height="150" fill="#F6F7F7"></rect><path d="M0 22L21.5 25C43 28 86 34 128.8 38.8C171.7 43.7 214.3 47.3 257.2 47.5C300 47.7 343 44.3 385.8 39.7C428.7 35 471.3 29 514.2 29.7C557 30.3 600 37.7 642.8 41.5C685.7 45.3 728.3 45.7 771.2 41.5C814 37.3 857 28.7 878.5 24.3L900 20L900 0L878.5 0C857 0 814 0 771.2 0C728.3 0 685.7 0 642.8 0C600 0 557 0 514.2 0C471.3 0 428.7 0 385.8 0C343 0 300 0 257.2 0C214.3 0 171.7 0 128.8 0C86 0 43 0 21.5 0L0 0Z" fill="#92A4A8" stroke-linecap="round" stroke-linejoin="miter"></path></svg>