<svg id="visual" viewBox="0 0 960 300" width="960" height="300" xmlns="http://www.w3.org/2000/svg" xmlns:xlink="http://www.w3.org/1999/xlink" version="1.1"><rect x="0" y="0" width="960" height="300" fill="#F6F7F7"></rect><path d="M0 58L22.8 63.7C45.7 69.3 91.3 80.7 137 83.5C182.7 86.3 228.3 80.7 274 75.3C319.7 70 365.3 65 411.2 63.2C457 61.3 503 62.7 548.8 70.8C594.7 79 640.3 94 686 89.5C731.7 85 777.3 61 823 61C868.7 61 914.3 85 937.2 97L960 109L960 0L937.2 0C914.3 0 868.7 0 823 0C777.3 0 731.7 0 686 0C640.3 0 594.7 0 548.8 0C503 0 457 0 411.2 0C365.3 0 319.7 0 274 0C228.3 0 182.7 0 137 0C91.3 0 45.7 0 22.8 0L0 0Z" fill="#92A4A8" stroke-linecap="round" stroke-linejoin="miter"></path></svg>