<svg id="visual" viewBox="0 0 900 600" width="900" height="600" xmlns="http://www.w3.org/2000/svg" xmlns:xlink="http://www.w3.org/1999/xlink" version="1.1"><path d="M878 600L869.5 590.8C861 581.7 844 563.3 817.7 545.2C791.3 527 755.7 509 744.5 490.8C733.3 472.7 746.7 454.3 766.7 436.2C786.7 418 813.3 400 810.7 381.8C808 363.7 776 345.3 778.5 327.2C781 309 818 291 807.8 272.8C797.7 254.7 740.3 236.3 733.2 218.2C726 200 769 182 802 163.8C835 145.7 858 127.3 836.2 109.2C814.3 91 747.7 73 717.2 54.8C686.7 36.7 692.3 18.3 695.2 9.2L698 0L900 0L900 9.2C900 18.3 900 36.7 900 54.8C900 73 900 91 900 109.2C900 127.3 900 145.7 900 163.8C900 182 900 200 900 218.2C900 236.3 900 254.7 900 272.8C900 291 900 309 900 327.2C900 345.3 900 363.7 900 381.8C900 400 900 418 900 436.2C900 454.3 900 472.7 900 490.8C900 509 900 527 900 545.2C900 563.3 900 581.7 900 590.8L900 600Z" fill="#92A4A8" stroke-linecap="round" stroke-linejoin="miter"></path></svg>